<svg width="1252" height="647" viewBox="0 0 1252 647" fill="none" xmlns="http://www.w3.org/2000/svg">
<g clip-path="url(#clip0_101_3)">
<path d="M908.958 367.147V545.876L963.433 594.597L967.579 598.304H1182.52L1186.87 367.147H908.958Z" fill="#9A9A9A"/>
<path opacity="0.1" d="M908.958 367.147V545.876L963.433 594.597L966.776 367.147H908.958Z" fill="black"/>
<path d="M390.052 362.38V541.11L335.578 589.832L331.432 593.537H116.488L112.145 362.38H390.052Z" fill="#9A9A9A"/>
<path opacity="0.1" d="M390.052 362.38V541.11L335.578 589.832L332.235 362.38H390.052Z" fill="black"/>
<path d="M1252 358.806V369.529H83.9199V354.039L192.477 323.059H1156.47L1252 358.806Z" fill="#9A9A9A"/>
<path opacity="0.1" d="M1252 358.806V369.529H83.9199V354.039L1252 358.806Z" fill="black"/>
<path d="M251.1 412.424H198.991L177.279 404.084H274.982L251.1 412.424Z" fill="black"/>
<path d="M251.1 446.979H198.991L177.279 438.638H274.982L251.1 446.979Z" fill="black"/>
<path d="M251.1 495.832H198.991L177.279 487.49H274.982L251.1 495.832Z" fill="black"/>
<path d="M251.1 544.684H198.991L177.279 536.344H274.982L251.1 544.684Z" fill="black"/>
<path d="M1047.91 417.19H1100.02L1121.73 408.849H1024.03L1047.91 417.19Z" fill="black"/>
<path d="M1047.91 451.745H1100.02L1121.73 443.404H1024.03L1047.91 451.745Z" fill="black"/>
<path d="M1047.91 500.598H1100.02L1121.73 492.257H1024.03L1047.91 500.598Z" fill="black"/>
<path d="M1047.91 549.45H1100.02L1121.73 541.11H1024.03L1047.91 549.45Z" fill="black"/>
<path d="M1083.4 116.376H644.721C642.543 116.376 640.385 116.612 638.372 117.069C636.359 117.527 634.53 118.197 632.99 119.043C631.449 119.888 630.227 120.892 629.393 121.997C628.56 123.101 628.131 124.285 628.131 125.481V287.653C628.131 288.849 628.56 290.033 629.393 291.138C630.227 292.242 631.449 293.246 632.99 294.092C634.53 294.937 636.359 295.608 638.372 296.065C640.385 296.523 642.543 296.758 644.721 296.758H811.246L805.007 318.618C805.007 318.618 769.353 329.013 794.423 329.318C819.492 329.624 937.594 329.318 937.594 329.318C937.594 329.318 960.435 329.318 924.224 318.312L918.356 296.758H1083.4C1085.57 296.758 1087.73 296.523 1089.75 296.065C1091.76 295.608 1093.59 294.937 1095.13 294.092C1096.67 293.246 1097.89 292.242 1098.72 291.138C1099.56 290.033 1099.99 288.849 1099.99 287.653V125.481C1099.99 124.285 1099.56 123.101 1098.72 121.997C1097.89 120.892 1096.67 119.888 1095.13 119.043C1093.59 118.197 1091.76 117.527 1089.75 117.069C1087.73 116.612 1085.57 116.376 1083.4 116.376V116.376Z" fill="black"/>
<path d="M1084.11 126.007H644.008V261.14H1084.11V126.007Z" fill="#DFDFDF"/>
<path d="M864.059 123.255C865.597 123.255 866.844 122.571 866.844 121.727C866.844 120.882 865.597 120.198 864.059 120.198C862.52 120.198 861.273 120.882 861.273 121.727C861.273 122.571 862.52 123.255 864.059 123.255Z" fill="#F2F2F2"/>
<path d="M864.059 290.185C869.904 290.185 874.643 287.584 874.643 284.376C874.643 281.168 869.904 278.567 864.059 278.567C858.213 278.567 853.474 281.168 853.474 284.376C853.474 287.584 858.213 290.185 864.059 290.185Z" fill="#F2F2F2"/>
<path d="M847.565 345.828V348.886H547.851V346.439L548.263 345.828L555.65 334.822H841.437L847.565 345.828Z" fill="black"/>
<path d="M962.904 342.835C962.358 344.116 960.297 345.467 955.64 346.745C938.927 351.331 904.945 345.522 904.945 345.522C904.945 345.522 878.761 343.076 878.761 336.656C879.497 336.38 880.263 336.129 881.057 335.907C888.083 333.867 911.381 328.833 952.689 336.12C955.733 336.644 958.451 337.622 960.542 338.944C961.468 339.444 962.165 340.057 962.576 340.734C962.986 341.41 963.099 342.13 962.904 342.835Z" fill="black"/>
<path opacity="0.1" d="M962.904 342.835C942.448 347.136 924.214 347.457 905.502 340.325C898.425 337.454 889.857 335.905 881.057 335.907C888.083 333.867 911.381 328.833 952.69 336.12C955.733 336.644 958.451 337.622 960.542 338.944C961.468 339.444 962.165 340.057 962.576 340.734C962.986 341.41 963.099 342.13 962.904 342.835Z" fill="black"/>
<path d="M937.256 340.325C941.255 340.325 944.498 339.777 944.498 339.102C944.498 338.426 941.255 337.879 937.256 337.879C933.256 337.879 930.014 338.426 930.014 339.102C930.014 339.777 933.256 340.325 937.256 340.325Z" fill="#F2F2F2"/>
<path opacity="0.1" d="M847.565 345.828V348.886H547.851V346.439L548.263 345.828H847.565Z" fill="black"/>
<path d="M166.645 0.000865084C163.604 -0.136194 160.558 0.23722 157.911 1.07163C155.313 2.04819 153.675 3.75903 152.004 5.35106C145.612 11.5107 136.959 16.8748 126.593 21.1035C119.043 24.139 109.443 27.924 110.735 33.5208C111.417 35.3691 112.661 37.1412 114.415 38.7625C121.381 46.479 140.388 52.4422 138.519 61.2474C145.439 54.8893 136.182 51.7455 143.103 45.3875C146.398 42.3597 152.123 38.9418 157.099 40.8433C158.765 41.48 159.859 42.6219 161.594 43.1805C165.733 44.5135 170.136 41.9651 173.8 40.1601C186.435 33.9357 204.402 35.5663 220.124 37.5057C227.547 38.4213 235.699 39.6225 240.087 43.5157C245.856 48.6345 234.606 54.1628 231.764 59.9501C231.532 60.4432 231.521 60.9598 231.732 61.4558C231.943 61.9517 232.37 62.4123 232.976 62.798C233.582 63.1837 234.349 63.4831 235.212 63.6706C236.075 63.8581 237.007 63.9281 237.93 63.8746C242.648 63.6192 248.236 63.4099 248.515 62.2738C254.451 62.3897 261.723 62.0208 264.267 58.6291C265.044 57.2871 265.455 55.8893 265.486 54.4813C266.419 48.7839 270.825 43.5861 273.744 38.1634C276.663 32.7408 277.932 26.3858 273.006 21.5781C271.248 19.9785 269.074 18.5283 266.553 17.2734C238.599 2.42717 201.845 -0.0211723 166.645 0.000865084Z" fill="#333333"/>
<path d="M144.598 72.3681C144.598 72.3681 150.678 100.172 128.386 102.396C106.095 104.62 148.651 142.433 148.651 142.433L249.976 149.106L225.658 104.62C225.658 104.62 209.446 101.284 219.579 79.041C229.711 56.798 144.598 72.3681 144.598 72.3681Z" fill="#FFB8B8"/>
<path d="M82.7897 550.035L90.8965 611.203H133.452L121.294 550.035H82.7897Z" fill="#FFB8B8"/>
<path d="M394.871 434.372L400.95 485.53L447.561 474.409L429.321 432.148L394.871 434.372Z" fill="#FFB8B8"/>
<path d="M52.3923 316.484C52.3923 316.484 54.4188 380.989 66.5779 402.119C78.737 423.25 76.7104 424.362 74.6839 427.699C72.6574 431.035 70.6309 428.811 70.6309 434.372C70.6309 439.933 66.5779 527.792 70.6309 535.577C74.6839 543.362 58.4719 556.708 70.6309 557.82C82.7899 558.932 139.532 557.82 141.558 551.147C143.585 544.474 125.346 542.25 133.452 537.801C141.558 533.353 153.717 442.157 153.717 442.157L182.088 378.764L234.777 345.4H346.235L380.685 418.802C380.685 418.802 366.5 439.933 376.632 439.933C386.765 439.933 447.56 446.605 447.56 422.138C447.56 397.671 427.295 325.381 423.242 323.157C419.189 320.933 425.268 313.148 419.189 309.811C413.109 306.475 342.182 283.12 315.837 278.671C289.493 274.223 252.536 268.928 252.536 268.928L52.3923 316.484Z" fill="#151515"/>
<path d="M447.56 465.512C447.56 465.512 417.162 459.951 402.977 476.633C388.791 493.316 394.871 497.764 394.871 497.764C394.871 497.764 441.48 506.661 449.586 502.213C453.113 500.277 464.312 499.605 475.839 499.463C493.396 499.247 498.067 485.615 481.486 482.441C480.991 482.346 480.491 482.264 479.984 482.194C463.772 479.97 447.56 465.512 447.56 465.512Z" fill="black"/>
<path d="M190.194 90.7185C223.77 90.7185 250.989 75.7808 250.989 57.3541C250.989 38.9275 223.77 23.9897 190.194 23.9897C156.618 23.9897 129.399 38.9275 129.399 57.3541C129.399 75.7808 156.618 90.7185 190.194 90.7185Z" fill="#FFB8B8"/>
<path d="M111.161 116.298C111.161 116.298 210.459 127.419 234.777 109.625C259.095 91.8306 269.228 159.672 269.228 159.672L281.387 230.849L263.148 269.774C263.148 269.774 167.903 312.036 137.505 315.372C107.108 318.709 60.4983 320.933 60.4983 320.933C60.4983 320.933 74.6839 197.485 74.6839 195.26C74.6839 193.036 111.161 116.298 111.161 116.298Z" fill="#008BDA"/>
<path d="M141.36 95.4399C141.36 95.4399 119.267 88.4942 113.187 95.1671C107.108 101.84 50.3658 118.522 44.2863 118.522C38.2068 118.522 56.4453 210.83 48.3393 221.952C40.2333 233.073 1.72979 314.26 24.0213 320.933C46.3128 327.606 30.1008 314.26 52.3923 330.942C74.6838 347.624 184.115 347.624 190.194 340.951C196.274 334.279 141.558 284.232 151.691 237.522C161.823 190.812 178.035 126.307 163.85 117.41C149.664 108.513 141.36 95.4399 141.36 95.4399Z" fill="#060433"/>
<path d="M214.512 102.952L217.335 97.621C217.335 97.621 301.652 112.961 305.705 122.971C309.758 132.98 307.731 203.045 293.546 208.606C279.36 214.167 259.095 223.064 273.281 236.41C287.466 249.755 303.678 264.213 315.837 265.325C327.997 266.438 350.288 274.223 344.208 282.008C338.129 289.793 265.175 275.335 265.175 275.335C265.175 275.335 216.539 255.316 218.565 224.176C220.592 193.036 214.512 102.952 214.512 102.952Z" fill="#060433"/>
<path d="M285.44 234.185L236.804 284.232C236.804 284.232 165.876 324.269 206.406 328.718C246.936 333.166 269.228 292.017 269.228 292.017L321.917 250.868L285.44 234.185Z" fill="#FFB8B8"/>
<path d="M169.607 8.72986C167.156 8.63021 164.702 8.89148 162.497 9.48667C160.504 10.2857 158.86 11.3191 157.688 12.5113C152.283 16.9735 145.237 20.7659 137.003 23.645C130.856 25.7906 123.042 28.4657 124.094 32.4215C124.665 33.7478 125.681 35.0042 127.09 36.1263C132.779 41.6354 135.044 48.0117 133.542 54.2902L150.442 40.8089C153.125 38.6688 157.786 36.2531 161.836 37.597C163.192 38.047 164.083 38.8541 165.495 39.249C168.864 40.1911 172.449 38.39 175.432 37.1142C185.716 32.7148 200.343 33.8673 213.141 35.238C219.183 35.8852 225.82 36.7342 229.392 39.4859C235.327 44.0587 229.129 50.666 232.594 55.9487C233.563 55.5761 234.387 55.1005 235.015 54.55C235.644 53.9995 236.065 53.3853 236.253 52.7439C241.084 52.8259 247.005 52.5652 249.075 50.1678C249.704 49.2283 250.04 48.2372 250.067 47.2362C250.827 43.2093 254.414 39.5356 256.79 35.7029C259.166 31.8702 260.199 27.3786 256.189 23.9805C254.722 22.8291 252.952 21.8037 250.936 20.938C228.18 10.4447 198.261 8.71428 169.607 8.72986Z" fill="#343434"/>
<path d="M285.44 118.522L304.321 121.273C304.321 121.273 348.261 183.027 338.129 225.288C327.996 267.55 321.917 258.653 321.917 258.653C321.917 258.653 305.705 238.634 269.228 243.083L285.44 118.522Z" fill="#008BDA"/>
<path d="M85.5974 603.119C80.7106 606.764 81.6904 611.973 77.3616 615.824C73.6093 619.163 66.5378 620.913 61.8444 623.871C60.3468 624.854 59.0118 625.908 57.855 627.02C53.5013 631.023 49.9625 636.152 54.2504 640.176C57.6997 643.412 64.95 644.677 71.5994 645.54C80.0038 646.629 88.7361 647.502 97.2376 646.669C105.739 645.836 114.048 642.979 117.079 638.541C117.675 637.425 118.383 636.329 119.2 635.256C123.808 630.277 138.261 630.224 142.977 625.276C146.277 621.813 143.244 617.628 140.211 614.092L130.95 603.293C127.876 599.71 115.416 601.771 108.92 600.912C100.449 599.792 91.6919 598.558 85.5974 603.119Z" fill="#020202"/>
<path d="M17.9418 256.428L103.055 328.718C103.055 328.718 155.744 365.419 171.956 348.736C188.168 332.054 115.214 304.251 115.214 304.251L60.4982 248.643L17.9418 256.428Z" fill="#FFB8B8"/>
<path d="M60.4983 120.746L44.2863 118.522C44.2863 118.522 11.8623 124.083 3.75628 147.438C-4.34971 170.793 1.72977 264.213 11.8623 265.325C21.9948 266.438 61.9066 249.059 68.2952 252.744C74.6838 256.428 54.4188 237.522 60.4982 227.512C66.5777 217.503 60.4983 120.746 60.4983 120.746Z" fill="#008BDA"/>
<path d="M822.403 170.389H770.026V177.309H822.403V170.389Z" fill="#0693BF"/>
<path d="M1003.78 170.389H985.354V177.309H1003.78V170.389Z" fill="#0693BF"/>
<path d="M1040.64 170.389H1022.21V177.309H1040.64V170.389Z" fill="#0693BF"/>
<path d="M965.955 170.389H840.832V177.309H965.955V170.389Z" fill="#0693BF"/>
<path d="M756.447 215.103H704.07V222.023H756.447V215.103Z" fill="#0693BF"/>
<path d="M937.827 215.103H919.398V222.023H937.827V215.103Z" fill="#0693BF"/>
<path d="M974.685 215.103H956.256V222.023H974.685V215.103Z" fill="#0693BF"/>
<path d="M899.999 215.103H774.876V222.023H899.999V215.103Z" fill="#0693BF"/>
<path d="M972.745 185.826H920.368V192.746H972.745V185.826Z" fill="#0693BF"/>
<path d="M1043.55 185.826H991.174V192.746H1043.55V185.826Z" fill="#0693BF"/>
<path d="M722.499 185.826H704.07V192.746H722.499V185.826Z" fill="#0693BF"/>
<path d="M759.357 185.826H740.928V192.746H759.357V185.826Z" fill="#0693BF"/>
<path d="M902.909 185.826H777.786V192.746H902.909V185.826Z" fill="#0693BF"/>
<path d="M864.111 200.731H811.734V207.651H864.111V200.731Z" fill="#0693BF"/>
<path d="M793.305 200.731H740.928V207.651H793.305V200.731Z" fill="#0693BF"/>
<path d="M722.499 200.731H704.07V207.651H722.499V200.731Z" fill="#0693BF"/>
<path d="M1043.55 200.731H1025.12V207.651H1043.55V200.731Z" fill="#0693BF"/>
<path d="M1006.69 200.731H881.57V207.651H1006.69V200.731Z" fill="#0693BF"/>
</g>
<defs>
<clipPath id="clip0_101_3">
<rect width="1252" height="647" fill="white"/>
</clipPath>
</defs>
</svg>
